REM DIRINDEX 1\2\4,1\2\5,1\2\6,1\3\7,1\3\8,1\3\9,1\3\10
REM DIRNAME folder01,folder02,folder03,folder04,folder05,folder06,folder07,folder08,folder09,folder10
TITLE ""
FILE "b_37.mp3" MP3
  TRACK 01 AUDIO
    TITLE "0:"
    INDEX 01 00:00:00
  TRACK 02 AUDIO
    TITLE "10:cjc058_3313"
    INDEX 01 00:00:13
  TRACK 03 AUDIO
    TITLE "0:"
    INDEX 01 00:03:25
  TRACK 04 AUDIO
    TITLE "7:cjc058_3314"
    INDEX 01 00:03:66
  TRACK 05 AUDIO
    TITLE "0:"
    INDEX 01 00:05:42
  TRACK 06 AUDIO
    TITLE "8:cjc058_3315"
    INDEX 01 00:05:71
  TRACK 07 AUDIO
    TITLE "0:"
    INDEX 01 00:07:72
  TRACK 08 AUDIO
    TITLE "9:cjc058_3316"
    INDEX 01 00:08:36
  TRACK 09 AUDIO
    TITLE "0:"
    INDEX 01 00:11:74
  TRACK 10 AUDIO
    TITLE "7:cjc058_3317"
    INDEX 01 00:13:04
  TRACK 11 AUDIO
    TITLE "0:"
    INDEX 01 00:14:53
  TRACK 12 AUDIO
    TITLE "8:cjc058_3318"
    INDEX 01 00:15:07
  TRACK 13 AUDIO
    TITLE "0:"
    INDEX 01 00:16:51
  TRACK 14 AUDIO
    TITLE "9:cjc058_3319"
    INDEX 01 00:17:20
  TRACK 15 AUDIO
    TITLE "0:"
    INDEX 01 00:23:61
  TRACK 16 AUDIO
    TITLE "7:cjc058_3320"
    INDEX 01 00:24:65
  TRACK 17 AUDIO
    TITLE "0:"
    INDEX 01 00:26:36
  TRACK 18 AUDIO
    TITLE "8:cjc058_3321"
    INDEX 01 00:26:66
  TRACK 19 AUDIO
    TITLE "0:"
    INDEX 01 00:28:29
  TRACK 20 AUDIO
    TITLE "9:cjc058_3322"
    INDEX 01 00:28:72
  TRACK 21 AUDIO
    TITLE "0:"
    INDEX 01 00:32:54
  TRACK 22 AUDIO
    TITLE "7:cjc058_3323"
    INDEX 01 00:33:60
  TRACK 23 AUDIO
    TITLE "0:"
    INDEX 01 00:35:29
  TRACK 24 AUDIO
    TITLE "8:cjc058_3324"
    INDEX 01 00:35:57
  TRACK 25 AUDIO
    TITLE "0:"
    INDEX 01 00:38:02
  TRACK 26 AUDIO
    TITLE "9:cjc058_3325"
    INDEX 01 00:38:39
  TRACK 27 AUDIO
    TITLE "0:"
    INDEX 01 00:42:21
  TRACK 28 AUDIO
    TITLE "7:cjc058_3326"
    INDEX 01 00:43:25
  TRACK 29 AUDIO
    TITLE "0:"
    INDEX 01 00:45:10
  TRACK 30 AUDIO
    TITLE "8:cjc058_3327"
    INDEX 01 00:45:39
  TRACK 31 AUDIO
    TITLE "0:"
    INDEX 01 00:47:17
  TRACK 32 AUDIO
    TITLE "9:cjc058_3328"
    INDEX 01 00:47:58
  TRACK 33 AUDIO
    TITLE "0:"
    INDEX 01 00:53:70
  TRACK 34 AUDIO
    TITLE "7:cjc058_3329"
    INDEX 01 00:54:70
  TRACK 35 AUDIO
    TITLE "0:"
    INDEX 01 00:56:10
  TRACK 36 AUDIO
    TITLE "8:cjc058_3330"
    INDEX 01 00:56:35
  TRACK 37 AUDIO
    TITLE "0:"
    INDEX 01 00:58:13
  TRACK 38 AUDIO
    TITLE "9:cjc058_3331"
    INDEX 01 00:58:52
  TRACK 39 AUDIO
    TITLE "0:"
    INDEX 01 01:03:02
  TRACK 40 AUDIO
    TITLE "7:cjc058_3332"
    INDEX 01 01:04:05
  TRACK 41 AUDIO
    TITLE "0:"
    INDEX 01 01:05:30
  TRACK 42 AUDIO
    TITLE "8:cjc058_3333"
    INDEX 01 01:05:60
  TRACK 43 AUDIO
    TITLE "0:"
    INDEX 01 01:07:63
  TRACK 44 AUDIO
    TITLE "9:cjc058_3334"
    INDEX 01 01:08:29
  TRACK 45 AUDIO
    TITLE "0:"
    INDEX 01 01:14:12
  TRACK 46 AUDIO
    TITLE "7:cjc058_3335"
    INDEX 01 01:15:15
  TRACK 47 AUDIO
    TITLE "0:"
    INDEX 01 01:16:42
  TRACK 48 AUDIO
    TITLE "8:cjc058_3336"
    INDEX 01 01:16:71
  TRACK 49 AUDIO
    TITLE "0:"
    INDEX 01 01:19:09
  TRACK 50 AUDIO
    TITLE "9:cjc058_3337"
    INDEX 01 01:19:52
  TRACK 51 AUDIO
    TITLE "0:"
    INDEX 01 01:24:22
  TRACK 52 AUDIO
    TITLE "7:cjc058_3338"
    INDEX 01 01:25:27
  TRACK 53 AUDIO
    TITLE "0:"
    INDEX 01 01:26:54
  TRACK 54 AUDIO
    TITLE "8:cjc058_3339"
    INDEX 01 01:27:06
  TRACK 55 AUDIO
    TITLE "0:"
    INDEX 01 01:28:41
  TRACK 56 AUDIO
    TITLE "9:cjc058_3340"
    INDEX 01 01:29:07
  TRACK 57 AUDIO
    TITLE "0:"
    INDEX 01 01:32:29
  TRACK 58 AUDIO
    TITLE "7:cjc058_3341"
    INDEX 01 01:33:33
  TRACK 59 AUDIO
    TITLE "0:"
    INDEX 01 01:34:69
  TRACK 60 AUDIO
    TITLE "8:cjc058_3342"
    INDEX 01 01:35:24
  TRACK 61 AUDIO
    TITLE "0:"
    INDEX 01 01:37:42
  TRACK 62 AUDIO
    TITLE "9:cjc058_3343"
    INDEX 01 01:38:08
  TRACK 63 AUDIO
    TITLE "0:"
    INDEX 01 01:44:38
  TRACK 64 AUDIO
    TITLE "7:cjc058_3344"
    INDEX 01 01:45:40
  TRACK 65 AUDIO
    TITLE "0:"
    INDEX 01 01:47:21
  TRACK 66 AUDIO
    TITLE "8:cjc058_3345"
    INDEX 01 01:47:44
  TRACK 67 AUDIO
    TITLE "0:"
    INDEX 01 01:49:73
  TRACK 68 AUDIO
    TITLE "9:cjc058_3346"
    INDEX 01 01:50:39
  TRACK 69 AUDIO
    TITLE "0:"
    INDEX 01 01:55:13
  TRACK 70 AUDIO
    TITLE "7:cjc058_3347"
    INDEX 01 01:56:16
  TRACK 71 AUDIO
    TITLE "0:"
    INDEX 01 01:57:55
  TRACK 72 AUDIO
    TITLE "8:cjc058_3348"
    INDEX 01 01:58:09
  TRACK 73 AUDIO
    TITLE "0:"
    INDEX 01 01:59:34
  TRACK 74 AUDIO
    TITLE "9:cjc058_3349"
    INDEX 01 02:00:00
  TRACK 75 AUDIO
    TITLE "0:"
    INDEX 01 02:04:02
  TRACK 76 AUDIO
    TITLE "7:cjc058_3350"
    INDEX 01 02:05:07
  TRACK 77 AUDIO
    TITLE "0:"
    INDEX 01 02:06:50
  TRACK 78 AUDIO
    TITLE "8:cjc058_3351"
    INDEX 01 02:07:02
  TRACK 79 AUDIO
    TITLE "0:"
    INDEX 01 02:09:52
  TRACK 80 AUDIO
    TITLE "9:cjc058_3352"
    INDEX 01 02:10:18
  TRACK 81 AUDIO
    TITLE "0:"
    INDEX 01 02:15:58
  TRACK 82 AUDIO
    TITLE "7:cjc058_3353"
    INDEX 01 02:16:60
  TRACK 83 AUDIO
    TITLE "0:"
    INDEX 01 02:18:29
  TRACK 84 AUDIO
    TITLE "8:cjc058_3354"
    INDEX 01 02:18:59
  TRACK 85 AUDIO
    TITLE "0:"
    INDEX 01 02:21:22
  TRACK 86 AUDIO
    TITLE "9:cjc058_3355"
    INDEX 01 02:21:59
  TRACK 87 AUDIO
    TITLE "0:"
    INDEX 01 02:25:31
  TRACK 88 AUDIO
    TITLE "7:cjc058_3356"
    INDEX 01 02:26:37
  TRACK 89 AUDIO
    TITLE "0:"
    INDEX 01 02:27:63
  TRACK 90 AUDIO
    TITLE "8:cjc058_3357"
    INDEX 01 02:28:18
  TRACK 91 AUDIO
    TITLE "0:"
    INDEX 01 02:30:54
  TRACK 92 AUDIO
    TITLE "9:cjc058_3358"
    INDEX 01 02:31:20
  TRACK 93 AUDIO
    TITLE "0:"
    INDEX 01 02:35:59
  TRACK 94 AUDIO
    TITLE "7:cjc058_3359"
    INDEX 01 02:36:62
  TRACK 95 AUDIO
    TITLE "0:"
    INDEX 01 02:38:44
  TRACK 96 AUDIO
    TITLE "8:cjc058_3360"
    INDEX 01 02:38:73
  TRACK 97 AUDIO
    TITLE "0:"
    INDEX 01 02:41:22
  TRACK 98 AUDIO
    TITLE "9:cjc058_3361"
    INDEX 01 02:41:62
  TRACK 99 AUDIO
    TITLE "0:"
    INDEX 01 02:44:66
  TRACK 100 AUDIO
    TITLE "7:cjc058_3362"
    INDEX 01 02:45:69
  TRACK 101 AUDIO
    TITLE "0:"
    INDEX 01 02:47:11
  TRACK 102 AUDIO
    TITLE "8:cjc058_3363"
    INDEX 01 02:47:41
  TRACK 103 AUDIO
    TITLE "0:"
    INDEX 01 02:49:16
  TRACK 104 AUDIO
    TITLE "9:cjc058_3364"
    INDEX 01 02:49:59
  TRACK 105 AUDIO
    TITLE "0:"
    INDEX 01 02:54:00
  TRACK 106 AUDIO
    TITLE "7:cjc058_3365"
    INDEX 01 02:55:03
  TRACK 107 AUDIO
    TITLE "0:"
    INDEX 01 02:57:41
  TRACK 108 AUDIO
    TITLE "8:cjc058_3366"
    INDEX 01 02:57:72
  TRACK 109 AUDIO
    TITLE "0:"
    INDEX 01 03:00:26
  TRACK 110 AUDIO
    TITLE "9:cjc058_3367"
    INDEX 01 03:00:67
  TRACK 111 AUDIO
    TITLE "0:"
    INDEX 01 03:03:44
  TRACK 112 AUDIO
    TITLE "7:cjc058_3368"
    INDEX 01 03:04:47
  TRACK 113 AUDIO
    TITLE "0:"
    INDEX 01 03:06:11
  TRACK 114 AUDIO
    TITLE "8:cjc058_3369"
    INDEX 01 03:06:40
  TRACK 115 AUDIO
    TITLE "0:"
    INDEX 01 03:08:35
  TRACK 116 AUDIO
    TITLE "9:cjc058_3370"
    INDEX 01 03:09:03
  TRACK 117 AUDIO
    TITLE "0:"
    INDEX 01 03:12:01
  TRACK 118 AUDIO
    TITLE "7:cjc058_3371"
    INDEX 01 03:13:07
  TRACK 119 AUDIO
    TITLE "0:"
    INDEX 01 03:14:63
  TRACK 120 AUDIO
    TITLE "8:cjc058_3372"
    INDEX 01 03:15:17
  TRACK 121 AUDIO
    TITLE "0:"
    INDEX 01 03:16:58
  TRACK 122 AUDIO
    TITLE "9:cjc058_3373"
    INDEX 01 03:17:20
  TRACK 123 AUDIO
    TITLE "0:"
    INDEX 01 03:20:54
  TRACK 124 AUDIO
    TITLE "7:cjc058_3374"
    INDEX 01 03:21:57
  TRACK 125 AUDIO
    TITLE "0:"
    INDEX 01 03:23:48
  TRACK 126 AUDIO
    TITLE "8:cjc058_3375"
    INDEX 01 03:24:03
  TRACK 127 AUDIO
    TITLE "0:"
    INDEX 01 03:26:39
  TRACK 128 AUDIO
    TITLE "9:cjc058_3376"
    INDEX 01 03:27:07
  TRACK 129 AUDIO
    TITLE "0:"
    INDEX 01 03:30:15
  TRACK 130 AUDIO
    TITLE "7:cjc058_3377"
    INDEX 01 03:31:18
  TRACK 131 AUDIO
    TITLE "0:"
    INDEX 01 03:32:53
  TRACK 132 AUDIO
    TITLE "8:cjc058_3378"
    INDEX 01 03:33:06
  TRACK 133 AUDIO
    TITLE "0:"
    INDEX 01 03:35:51
  TRACK 134 AUDIO
    TITLE "9:cjc058_3379"
    INDEX 01 03:36:20
  TRACK 135 AUDIO
    TITLE "0:"
    INDEX 01 03:42:54
  TRACK 136 AUDIO
    TITLE "7:cjc058_3380"
    INDEX 01 03:43:59
  TRACK 137 AUDIO
    TITLE "0:"
    INDEX 01 03:45:01
  TRACK 138 AUDIO
    TITLE "8:cjc058_3381"
    INDEX 01 03:45:30
  TRACK 139 AUDIO
    TITLE "0:"
    INDEX 01 03:47:66
  TRACK 140 AUDIO
    TITLE "9:cjc058_3382"
    INDEX 01 03:48:33
  TRACK 141 AUDIO
    TITLE "0:"
    INDEX 01 03:51:03
  TRACK 142 AUDIO
    TITLE "7:cjc058_3383"
    INDEX 01 03:52:07
  TRACK 143 AUDIO
    TITLE "0:"
    INDEX 01 03:53:30
  TRACK 144 AUDIO
    TITLE "8:cjc058_3384"
    INDEX 01 03:53:59
  TRACK 145 AUDIO
    TITLE "0:"
    INDEX 01 03:55:19
  TRACK 146 AUDIO
    TITLE "9:cjc058_3385"
    INDEX 01 03:55:60
  TRACK 147 AUDIO
    TITLE "0:"
    INDEX 01 03:59:38
  TRACK 148 AUDIO
    TITLE "7:cjc058_3386"
    INDEX 01 04:00:42
  TRACK 149 AUDIO
    TITLE "0:"
    INDEX 01 04:02:11
  TRACK 150 AUDIO
    TITLE "8:cjc058_3387"
    INDEX 01 04:02:39
  TRACK 151 AUDIO
    TITLE "0:"
    INDEX 01 04:04:22
  TRACK 152 AUDIO
    TITLE "9:cjc058_3388"
    INDEX 01 04:04:63
  TRACK 153 AUDIO
    TITLE "0:"
    INDEX 01 04:10:11
  TRACK 154 AUDIO
    TITLE "7:cjc058_3389"
    INDEX 01 04:11:14
  TRACK 155 AUDIO
    TITLE "0:"
    INDEX 01 04:12:53
  TRACK 156 AUDIO
    TITLE "8:cjc058_3390"
    INDEX 01 04:13:05
  TRACK 157 AUDIO
    TITLE "0:"
    INDEX 01 04:14:38
  TRACK 158 AUDIO
    TITLE "9:cjc058_3391"
    INDEX 01 04:14:73
  TRACK 159 AUDIO
    TITLE "0:"
    INDEX 01 04:19:19
  TRACK 160 AUDIO
    TITLE "7:cjc058_3392"
    INDEX 01 04:20:25
  TRACK 161 AUDIO
    TITLE "0:"
    INDEX 01 04:21:71
  TRACK 162 AUDIO
    TITLE "8:cjc058_3393"
    INDEX 01 04:22:26
  TRACK 163 AUDIO
    TITLE "0:"
    INDEX 01 04:23:54
  TRACK 164 AUDIO
    TITLE "9:cjc058_3394"
    INDEX 01 04:24:21
  TRACK 165 AUDIO
    TITLE "0:"
    INDEX 01 04:31:15
  TRACK 166 AUDIO
    TITLE "7:cjc058_3395"
    INDEX 01 04:32:18
  TRACK 167 AUDIO
    TITLE "0:"
    INDEX 01 04:33:57
  TRACK 168 AUDIO
    TITLE "8:cjc058_3396"
    INDEX 01 04:34:11
  TRACK 169 AUDIO
    TITLE "0:"
    INDEX 01 04:35:26
  TRACK 170 AUDIO
    TITLE "9:cjc058_3397"
    INDEX 01 04:35:67
  TRACK 171 AUDIO
    TITLE "0:"
    INDEX 01 04:39:24
  TRACK 172 AUDIO
    TITLE "7:cjc058_3398"
    INDEX 01 04:40:25
  TRACK 173 AUDIO
    TITLE "0:"
    INDEX 01 04:42:05
  TRACK 174 AUDIO
    TITLE "8:cjc058_3399"
    INDEX 01 04:42:34
  TRACK 175 AUDIO
    TITLE "0:"
    INDEX 01 04:43:69
  TRACK 176 AUDIO
    TITLE "9:cjc058_3400"
    INDEX 01 04:44:33
  TRACK 177 AUDIO
    TITLE "0:"
    INDEX 01 04:47:67
  TRACK 178 AUDIO
    TITLE "7:cjc058_3401"
    INDEX 01 04:48:64
  TRACK 179 AUDIO
    TITLE "0:"
    INDEX 01 04:50:26
  TRACK 180 AUDIO
    TITLE "8:cjc058_3402"
    INDEX 01 04:50:53
  TRACK 181 AUDIO
    TITLE "0:"
    INDEX 01 04:52:11
  TRACK 182 AUDIO
    TITLE "9:cjc058_3403"
    INDEX 01 04:52:50
  TRACK 183 AUDIO
    TITLE "0:"
    INDEX 01 04:58:65
  TRACK 184 AUDIO
    TITLE "7:cjc058_3404"
    INDEX 01 04:59:70
  TRACK 185 AUDIO
    TITLE "0:"
    INDEX 01 05:01:57
  TRACK 186 AUDIO
    TITLE "8:cjc058_3405"
    INDEX 01 05:02:11
  TRACK 187 AUDIO
    TITLE "0:"
    INDEX 01 05:03:32
  TRACK 188 AUDIO
    TITLE "9:cjc058_3406"
    INDEX 01 05:03:74
  TRACK 189 AUDIO
    TITLE "0:"
    INDEX 01 05:08:59
  TRACK 190 AUDIO
    TITLE "7:cjc058_3407"
    INDEX 01 05:09:64
  TRACK 191 AUDIO
    TITLE "0:"
    INDEX 01 05:11:32
  TRACK 192 AUDIO
    TITLE "8:cjc058_3408"
    INDEX 01 05:11:59
  TRACK 193 AUDIO
    TITLE "0:"
    INDEX 01 05:13:41
  TRACK 194 AUDIO
    TITLE "9:cjc058_3409"
    INDEX 01 05:14:07
  TRACK 195 AUDIO
    TITLE "0:"
    INDEX 01 05:17:01
  TRACK 196 AUDIO
    TITLE "7:cjc058_3410"
    INDEX 01 05:18:05
  TRACK 197 AUDIO
    TITLE "0:"
    INDEX 01 05:19:49
  TRACK 198 AUDIO
    TITLE "8:cjc058_3411"
    INDEX 01 05:20:01
  TRACK 199 AUDIO
    TITLE "0:"
    INDEX 01 05:21:44
  TRACK 200 AUDIO
    TITLE "9:cjc058_3412"
    INDEX 01 05:22:10
  TRACK 201 AUDIO
    TITLE "0:"
    INDEX 01 05:29:44
  TRACK 202 AUDIO
    TITLE "7:cjc058_3413"
    INDEX 01 05:30:47
  TRACK 203 AUDIO
    TITLE "0:"
    INDEX 01 05:32:18
  TRACK 204 AUDIO
    TITLE "8:cjc058_3414"
    INDEX 01 05:32:48
  TRACK 205 AUDIO
    TITLE "0:"
    INDEX 01 05:34:15
  TRACK 206 AUDIO
    TITLE "9:cjc058_3415"
    INDEX 01 05:34:56
  TRACK 207 AUDIO
    TITLE "0:"
    INDEX 01 05:38:46
  TRACK 208 AUDIO
    TITLE "7:cjc058_3416"
    INDEX 01 05:39:50
  TRACK 209 AUDIO
    TITLE "0:"
    INDEX 01 05:41:23
  TRACK 210 AUDIO
    TITLE "8:cjc058_3417"
    INDEX 01 05:41:53
  TRACK 211 AUDIO
    TITLE "0:"
    INDEX 01 05:43:63
  TRACK 212 AUDIO
    TITLE "9:cjc058_3418"
    INDEX 01 05:44:27
  TRACK 213 AUDIO
    TITLE "0:"
    INDEX 01 05:51:61
  TRACK 214 AUDIO
    TITLE "7:cjc058_3419"
    INDEX 01 05:52:60
  TRACK 215 AUDIO
    TITLE "0:"
    INDEX 01 05:54:08
  TRACK 216 AUDIO
    TITLE "8:cjc058_3420"
    INDEX 01 05:54:38
  TRACK 217 AUDIO
    TITLE "0:"
    INDEX 01 05:57:36
  TRACK 218 AUDIO
    TITLE "9:cjc058_3421"
    INDEX 01 05:58:02
  TRACK 219 AUDIO
    TITLE "0:"
    INDEX 01 06:02:16
  TRACK 220 AUDIO
    TITLE "7:cjc058_3422"
    INDEX 01 06:03:21
  TRACK 221 AUDIO
    TITLE "0:"
    INDEX 01 06:04:60
  TRACK 222 AUDIO
    TITLE "8:cjc058_3423"
    INDEX 01 06:05:14
  TRACK 223 AUDIO
    TITLE "0:"
    INDEX 01 06:07:46
  TRACK 224 AUDIO
    TITLE "9:cjc058_3424"
    INDEX 01 06:08:10
  TRACK 225 AUDIO
    TITLE "0:"
    INDEX 01 06:10:41
  TRACK 226 AUDIO
    TITLE "7:cjc058_3425"
    INDEX 01 06:11:42
  TRACK 227 AUDIO
    TITLE "0:"
    INDEX 01 06:13:15
  TRACK 228 AUDIO
    TITLE "8:cjc058_3426"
    INDEX 01 06:13:45
  TRACK 229 AUDIO
    TITLE "0:"
    INDEX 01 06:15:71
  TRACK 230 AUDIO
    TITLE "9:cjc058_3427"
    INDEX 01 06:16:35
  TRACK 231 AUDIO
    TITLE "0:"
    INDEX 01 06:19:10
  TRACK 232 AUDIO
    TITLE "7:cjc058_3428"
    INDEX 01 06:20:13
  TRACK 233 AUDIO
    TITLE "0:"
    INDEX 01 06:21:42
  TRACK 234 AUDIO
    TITLE "8:cjc058_3429"
    INDEX 01 06:21:70
  TRACK 235 AUDIO
    TITLE "0:"
    INDEX 01 06:23:43
  TRACK 236 AUDIO
    TITLE "9:cjc058_3430"
    INDEX 01 06:24:07
  TRACK 237 AUDIO
    TITLE "0:"
    INDEX 01 06:28:05
  TRACK 238 AUDIO
    TITLE "7:cjc058_3431"
    INDEX 01 06:29:10
  TRACK 239 AUDIO
    TITLE "0:"
    INDEX 01 06:30:41
  TRACK 240 AUDIO
    TITLE "8:cjc058_3432"
    INDEX 01 06:30:71
  TRACK 241 AUDIO
    TITLE "0:"
    INDEX 01 06:32:15
  TRACK 242 AUDIO
    TITLE "9:cjc058_3433"
    INDEX 01 06:32:56
  TRACK 243 AUDIO
    TITLE "0:"
    INDEX 01 06:36:61
  TRACK 244 AUDIO
    TITLE "7:cjc058_3434"
    INDEX 01 06:37:65
  TRACK 245 AUDIO
    TITLE "0:"
    INDEX 01 06:39:13
  TRACK 246 AUDIO
    TITLE "8:cjc058_3435"
    INDEX 01 06:39:42
  TRACK 247 AUDIO
    TITLE "0:"
    INDEX 01 06:40:61
  TRACK 248 AUDIO
    TITLE "9:cjc058_3436"
    INDEX 01 06:41:27
  TRACK 249 AUDIO
    TITLE "0:"
    INDEX 01 06:48:45
  TRACK 250 AUDIO
    TITLE "7:cjc058_3437"
    INDEX 01 06:49:48
  TRACK 251 AUDIO
    TITLE "0:"
    INDEX 01 06:51:10
  TRACK 252 AUDIO
    TITLE "8:cjc058_3438"
    INDEX 01 06:51:39
  TRACK 253 AUDIO
    TITLE "0:"
    INDEX 01 06:54:40
  TRACK 254 AUDIO
    TITLE "9:cjc058_3439"
    INDEX 01 06:55:08
  TRACK 255 AUDIO
    TITLE "0:"
    INDEX 01 06:58:73
  TRACK 256 AUDIO
    TITLE "7:cjc058_3440"
    INDEX 01 06:59:74
  TRACK 257 AUDIO
    TITLE "0:"
    INDEX 01 07:01:48
  TRACK 258 AUDIO
    TITLE "8:cjc058_3441"
    INDEX 01 07:02:02
  TRACK 259 AUDIO
    TITLE "0:"
    INDEX 01 07:05:08
  TRACK 260 AUDIO
    TITLE "9:cjc058_3442"
    INDEX 01 07:05:49
  TRACK 261 AUDIO
    TITLE "0:"
    INDEX 01 07:10:23
  TRACK 262 AUDIO
    TITLE "7:cjc058_3443"
    INDEX 01 07:11:27
  TRACK 263 AUDIO
    TITLE "0:"
    INDEX 01 07:12:49
  TRACK 264 AUDIO
    TITLE "8:cjc058_3444"
    INDEX 01 07:13:04
  TRACK 265 AUDIO
    TITLE "0:"
    INDEX 01 07:15:44
  TRACK 266 AUDIO
    TITLE "9:cjc058_3445"
    INDEX 01 07:16:10
  TRACK 267 AUDIO
    TITLE "0:"
    INDEX 01 07:19:59
  TRACK 268 AUDIO
    TITLE "7:cjc058_3446"
    INDEX 01 07:20:63
  TRACK 269 AUDIO
    TITLE "0:"
    INDEX 01 07:22:28
  TRACK 270 AUDIO
    TITLE "8:cjc058_3447"
    INDEX 01 07:22:58
  TRACK 271 AUDIO
    TITLE "0:"
    INDEX 01 07:25:03
  TRACK 272 AUDIO
    TITLE "9:cjc058_3448"
    INDEX 01 07:25:46
  TRACK 273 AUDIO
    TITLE "0:"
    INDEX 01 07:29:68
  TRACK 274 AUDIO
    TITLE "7:cjc058_3449"
    INDEX 01 07:30:67
  TRACK 275 AUDIO
    TITLE "0:"
    INDEX 01 07:33:34
  TRACK 276 AUDIO
    TITLE "8:cjc058_3450"
    INDEX 01 07:33:61
  TRACK 277 AUDIO
    TITLE "0:"
    INDEX 01 07:35:52
  TRACK 278 AUDIO
    TITLE "9:cjc058_3451"
    INDEX 01 07:36:19
  TRACK 279 AUDIO
    TITLE "0:"
    INDEX 01 07:40:44
  TRACK 280 AUDIO
    TITLE "7:cjc058_3452"
    INDEX 01 07:41:49
  TRACK 281 AUDIO
    TITLE "0:"
    INDEX 01 07:43:17
  TRACK 282 AUDIO
    TITLE "8:cjc058_3453"
    INDEX 01 07:43:46
  TRACK 283 AUDIO
    TITLE "0:"
    INDEX 01 07:44:67
  TRACK 284 AUDIO
    TITLE "9:cjc058_3454"
    INDEX 01 07:45:33
  TRACK 285 AUDIO
    TITLE "0:"
    INDEX 01 07:50:30
  TRACK 286 AUDIO
    TITLE "7:cjc058_3455"
    INDEX 01 07:51:36
  TRACK 287 AUDIO
    TITLE "0:"
    INDEX 01 07:52:67
  TRACK 288 AUDIO
    TITLE "8:cjc058_3456"
    INDEX 01 07:53:21
  TRACK 289 AUDIO
    TITLE "0:"
    INDEX 01 07:54:40
  TRACK 290 AUDIO
    TITLE "9:cjc058_3457"
    INDEX 01 07:55:04
  TRACK 291 AUDIO
    TITLE "0:"
    INDEX 01 08:01:09
  TRACK 292 AUDIO
    TITLE "7:cjc058_3458"
    INDEX 01 08:02:12
  TRACK 293 AUDIO
    TITLE "0:"
    INDEX 01 08:03:47
  TRACK 294 AUDIO
    TITLE "8:cjc058_3459"
    INDEX 01 08:03:72
  TRACK 295 AUDIO
    TITLE "0:"
    INDEX 01 08:05:73
  TRACK 296 AUDIO
    TITLE "9:cjc058_3460"
    INDEX 01 08:06:43
  TRACK 297 AUDIO
    TITLE "0:"
    INDEX 01 08:11:52
  TRACK 298 AUDIO
    TITLE "7:cjc058_3461"
    INDEX 01 08:12:54
  TRACK 299 AUDIO
    TITLE "0:"
    INDEX 01 08:14:35
  TRACK 300 AUDIO
    TITLE "8:cjc058_3462"
    INDEX 01 08:14:64
  TRACK 301 AUDIO
    TITLE "0:"
    INDEX 01 08:16:32
  TRACK 302 AUDIO
    TITLE "9:cjc058_3463"
    INDEX 01 08:16:73
  TRACK 303 AUDIO
    TITLE "0:"
    INDEX 01 08:23:12
  TRACK 304 AUDIO
    TITLE "7:cjc058_3464"
    INDEX 01 08:24:16
  TRACK 305 AUDIO
    TITLE "0:"
    INDEX 01 08:25:54
  TRACK 306 AUDIO
    TITLE "8:cjc058_3465"
    INDEX 01 08:26:07
  TRACK 307 AUDIO
    TITLE "0:"
    INDEX 01 08:28:23
  TRACK 308 AUDIO
    TITLE "9:cjc058_3466"
    INDEX 01 08:28:62
  TRACK 309 AUDIO
    TITLE "0:"
    INDEX 01 08:35:15
  TRACK 310 AUDIO
    TITLE "7:cjc058_3467"
    INDEX 01 08:36:19
  TRACK 311 AUDIO
    TITLE "0:"
    INDEX 01 08:37:73
  TRACK 312 AUDIO
    TITLE "8:cjc058_3468"
    INDEX 01 08:38:26
  TRACK 313 AUDIO
    TITLE "0:"
    INDEX 01 08:40:19
  TRACK 314 AUDIO
    TITLE "9:cjc058_3469"
    INDEX 01 08:40:56
  TRACK 315 AUDIO
    TITLE "0:"
    INDEX 01 08:45:04
  TRACK 316 AUDIO
    TITLE "7:cjc058_3470"
    INDEX 01 08:46:07
  TRACK 317 AUDIO
    TITLE "0:"
    INDEX 01 08:47:32
  TRACK 318 AUDIO
    TITLE "8:cjc058_3471"
    INDEX 01 08:47:62
  TRACK 319 AUDIO
    TITLE "0:"
    INDEX 01 08:49:51
  TRACK 320 AUDIO
    TITLE "9:cjc058_3472"
    INDEX 01 08:50:17
  TRACK 321 AUDIO
    TITLE "0:"
    INDEX 01 08:55:06
  TRACK 322 AUDIO
    TITLE "7:cjc058_3473"
    INDEX 01 08:56:10
  TRACK 323 AUDIO
    TITLE "0:"
    INDEX 01 08:57:27
  TRACK 324 AUDIO
    TITLE "8:cjc058_3474"
    INDEX 01 08:57:56
  TRACK 325 AUDIO
    TITLE "0:"
    INDEX 01 08:58:67
  TRACK 326 AUDIO
    TITLE "9:cjc058_3475"
    INDEX 01 08:59:32
  TRACK 327 AUDIO
    TITLE "0:"
    INDEX 01 09:04:41
  TRACK 328 AUDIO
    TITLE "7:cjc058_3476"
    INDEX 01 09:05:42
  TRACK 329 AUDIO
    TITLE "0:"
    INDEX 01 09:06:67
  TRACK 330 AUDIO
    TITLE "8:cjc058_3477"
    INDEX 01 09:07:21
  TRACK 331 AUDIO
    TITLE "0:"
    INDEX 01 09:08:56
  TRACK 332 AUDIO
    TITLE "9:cjc058_3478"
    INDEX 01 09:09:20
  TRACK 333 AUDIO
    TITLE "0:"
    INDEX 01 09:14:51
  TRACK 334 AUDIO
    TITLE "7:cjc058_3479"
    INDEX 01 09:15:56
  TRACK 335 AUDIO
    TITLE "0:"
    INDEX 01 09:17:49
  TRACK 336 AUDIO
    TITLE "8:cjc058_3480"
    INDEX 01 09:18:02
  TRACK 337 AUDIO
    TITLE "0:"
    INDEX 01 09:19:50
  TRACK 338 AUDIO
    TITLE "9:cjc058_3481"
    INDEX 01 09:20:16
  TRACK 339 AUDIO
    TITLE "0:"
    INDEX 01 09:25:21
  TRACK 340 AUDIO
    TITLE "7:cjc058_3482"
    INDEX 01 09:26:27
  TRACK 341 AUDIO
    TITLE "0:"
    INDEX 01 09:27:48
  TRACK 342 AUDIO
    TITLE "8:cjc058_3483"
    INDEX 01 09:28:00
  TRACK 343 AUDIO
    TITLE "0:"
    INDEX 01 09:30:01
  TRACK 344 AUDIO
    TITLE "9:cjc058_3484"
    INDEX 01 09:30:42
  TRACK 345 AUDIO
    TITLE "0:"
    INDEX 01 09:35:41
  TRACK 346 AUDIO
    TITLE "7:cjc058_3485"
    INDEX 01 09:36:45
  TRACK 347 AUDIO
    TITLE "0:"
    INDEX 01 09:37:71
  TRACK 348 AUDIO
    TITLE "8:cjc058_3486"
    INDEX 01 09:38:26
  TRACK 349 AUDIO
    TITLE "0:"
    INDEX 01 09:39:63
  TRACK 350 AUDIO
    TITLE "9:cjc058_3487"
    INDEX 01 09:40:29
  TRACK 351 AUDIO
    TITLE "0:"
    INDEX 01 09:44:68
  TRACK 352 AUDIO
    TITLE "7:cjc058_3488"
    INDEX 01 09:45:69
  TRACK 353 AUDIO
    TITLE "0:"
    INDEX 01 09:47:40
  TRACK 354 AUDIO
    TITLE "8:cjc058_3489"
    INDEX 01 09:47:68
  TRACK 355 AUDIO
    TITLE "0:"
    INDEX 01 09:49:33
  TRACK 356 AUDIO
    TITLE "9:cjc058_3490"
    INDEX 01 09:50:00
  TRACK 357 AUDIO
    TITLE "0:"
    INDEX 01 09:54:66
  TRACK 358 AUDIO
    TITLE "7:cjc058_3491"
    INDEX 01 09:55:71
  TRACK 359 AUDIO
    TITLE "0:"
    INDEX 01 09:57:55
  TRACK 360 AUDIO
    TITLE "8:cjc058_3492"
    INDEX 01 09:58:09
  TRACK 361 AUDIO
    TITLE "0:"
    INDEX 01 09:59:63
  TRACK 362 AUDIO
    TITLE "9:cjc058_3493"
    INDEX 01 10:00:27
  TRACK 363 AUDIO
    TITLE "0:"
    INDEX 01 10:04:74
  TRACK 364 AUDIO
    TITLE "7:cjc058_3494"
    INDEX 01 10:06:03
  TRACK 365 AUDIO
    TITLE "0:"
    INDEX 01 10:07:27
  TRACK 366 AUDIO
    TITLE "8:cjc058_3495"
    INDEX 01 10:07:57
  TRACK 367 AUDIO
    TITLE "0:"
    INDEX 01 10:10:30
  TRACK 368 AUDIO
    TITLE "9:cjc058_3496"
    INDEX 01 10:10:69
  TRACK 369 AUDIO
    TITLE "0:"
    INDEX 01 10:13:69
  TRACK 370 AUDIO
    TITLE "7:cjc058_3497"
    INDEX 01 10:14:73
  TRACK 371 AUDIO
    TITLE "0:"
    INDEX 01 10:16:50
  TRACK 372 AUDIO
    TITLE "8:cjc058_3498"
    INDEX 01 10:17:02
  TRACK 373 AUDIO
    TITLE "0:"
    INDEX 01 10:19:27
  TRACK 374 AUDIO
    TITLE "9:cjc058_3499"
    INDEX 01 10:19:70
  TRACK 375 AUDIO
    TITLE "0:"
    INDEX 01 10:26:54
  TRACK 376 AUDIO
    TITLE "7:cjc058_3500"
    INDEX 01 10:27:56
  TRACK 377 AUDIO
    TITLE "0:"
    INDEX 01 10:29:13
  TRACK 378 AUDIO
    TITLE "8:cjc058_3501"
    INDEX 01 10:29:43
  TRACK 379 AUDIO
    TITLE "0:"
    INDEX 01 10:31:57
  TRACK 380 AUDIO
    TITLE "9:cjc058_3502"
    INDEX 01 10:32:20
  TRACK 381 AUDIO
    TITLE "0:"
    INDEX 01 10:37:25
  TRACK 382 AUDIO
    TITLE "7:cjc058_3503"
    INDEX 01 10:38:28
  TRACK 383 AUDIO
    TITLE "0:"
    INDEX 01 10:41:17
  TRACK 384 AUDIO
    TITLE "8:cjc058_3504"
    INDEX 01 10:41:46
  TRACK 385 AUDIO
    TITLE "0:"
    INDEX 01 10:43:59
  TRACK 386 AUDIO
    TITLE "9:cjc058_3505"
    INDEX 01 10:44:25
  TRACK 387 AUDIO
    TITLE "0:"
    INDEX 01 10:50:23
